<?xml version="1.0" standalone="no"?>
<!DOCTYPE svg PUBLIC "-//W3C//DTD SVG 20010904//EN"
 "http://www.w3.org/TR/2001/REC-SVG-20010904/DTD/svg10.dtd">
<svg version="1.0" xmlns="http://www.w3.org/2000/svg"
 width="300.000000pt" height="300.000000pt" viewBox="0 0 300.000000 300.000000"
 preserveAspectRatio="xMidYMid meet">
<metadata>
Created by potrace 1.11, written by Peter Selinger 2001-2013
</metadata>
<g transform="translate(0.000000,300.000000) scale(0.100000,-0.100000)"
fill="#000000" stroke="none">
<path d="M2795 2950 c-27 -10 -90 -33 -140 -51 -203 -71 -356 -149 -402 -205
-19 -24 -65 -65 -100 -89 -56 -39 -71 -45 -116 -45 -29 0 -70 5 -91 11 -34 9
-46 8 -90 -12 -28 -13 -53 -26 -56 -29 -3 -3 -12 -7 -20 -9 -8 -2 -48 -14 -89
-27 -81 -25 -84 -24 -170 25 -36 21 -106 21 -148 0 -13 -7 -37 -9 -60 -4 -33
6 -36 8 -20 19 9 7 53 21 97 30 51 11 80 22 77 29 -2 7 -14 11 -26 9 -16 -3
-24 3 -28 17 -7 29 -18 26 -33 -9 -7 -16 -16 -30 -21 -30 -21 0 -62 23 -88 49
-16 16 -47 35 -70 41 -22 6 -43 15 -46 20 -12 20 -71 43 -102 41 -17 -1 -38 5
-47 14 -15 16 -86 16 -426 0 -41 -2 -151 -7 -245 -10 -93 -4 -173 -9 -177 -12
-4 -2 -7 -480 -7 -1063 l0 -1059 32 6 c24 4 37 0 51 -16 23 -25 60 -27 110 -6
30 13 45 9 34 -9 -7 -10 38 -46 58 -46 25 0 58 -57 78 -138 11 -43 15 -47 57
-59 24 -7 73 -16 108 -19 59 -6 66 -10 104 -51 59 -65 81 -70 123 -34 38 34
52 33 141 -13 33 -16 69 -26 96 -26 37 0 48 6 82 40 33 34 128 81 140 69 2 -2
6 -24 10 -49 9 -61 27 -85 79 -108 32 -15 51 -33 70 -65 27 -46 46 -60 69 -52
6 2 30 7 52 10 58 8 85 29 85 66 0 44 15 65 50 72 25 5 30 11 30 35 0 16 -6
49 -14 75 -13 45 -13 46 15 73 16 15 27 29 25 31 -10 11 19 80 44 105 l29 28
36 -17 c35 -17 37 -20 32 -55 -3 -21 -1 -40 3 -43 9 -6 50 33 50 47 0 4 11 3
25 -2 22 -9 25 -8 17 6 -5 9 -7 25 -5 35 3 11 -2 30 -10 43 -15 23 -15 25 8
40 18 12 23 22 19 42 -3 17 4 40 22 68 23 37 30 41 59 38 30 -4 33 -1 39 31 7
37 28 61 63 71 18 6 25 2 35 -18 8 -20 16 -25 31 -20 52 16 84 35 108 61 14
15 65 65 113 109 47 45 86 89 86 97 0 8 6 17 12 19 9 3 10 11 2 28 -12 27 23
150 44 150 6 0 13 12 13 28 1 15 3 44 4 64 1 20 7 44 15 52 7 9 10 16 7 16
-12 0 22 93 48 132 20 31 25 46 19 67 -7 24 -6 38 1 81 1 8 -6 32 -16 52 -29
57 -21 90 23 92 50 3 48 -19 48 577 0 307 -3 559 -7 558 -5 0 -30 -9 -58 -19z
m-1301 -1054 c138 -68 208 -197 201 -376 -4 -137 -40 -233 -112 -304 -31 -32
-114 -80 -133 -79 -3 0 -16 -4 -30 -9 -27 -10 -116 -12 -165 -3 -94 18 -190
98 -238 198 -25 52 -46 157 -42 201 13 110 25 159 63 232 23 46 99 119 140
136 110 45 229 46 316 4z m-893 -58 c0 -18 0 -158 0 -310 l0 -278 122 -1 c67
-1 146 -1 175 0 l52 0 0 -59 0 -60 -280 0 -280 0 -1 38 c0 40 0 615 1 670 l0
32 105 0 105 0 1 -32z m1432 -278 c-1 -284 0 -310 15 -311 9 0 88 0 175 1 104
1 157 -2 158 -9 4 -38 3 -94 -1 -101 -6 -9 -90 -12 -377 -11 l-183 1 0 370 0
370 108 0 107 0 -2 -310z"/>
<path d="M1185 1702 c-11 -2 -35 -19 -52 -38 -28 -28 -33 -40 -33 -80 0 -53
31 -114 77 -153 15 -13 58 -53 94 -88 l66 -65 102 99 c121 116 131 131 138
191 6 59 -25 111 -78 129 -48 16 -85 6 -125 -33 -39 -39 -50 -42 -59 -14 -11
34 -83 62 -130 52z"/>
</g>
</svg>
